<?xml version="1.0" encoding="UTF-8"?>
<!DOCTYPE svg PUBLIC "-//W3C//DTD SVG 1.1//EN" "http://www.w3.org/Graphics/SVG/1.1/DTD/svg11.dtd">
<svg xmlns="http://www.w3.org/2000/svg" version="1.1" width="250px" height="64px" style="shape-rendering:geometricPrecision; text-rendering:geometricPrecision; image-rendering:optimizeQuality; fill-rule:evenodd; clip-rule:evenodd" xmlns:xlink="http://www.w3.org/1999/xlink">
<g><path style="opacity:0.978" fill="#f8f9f9" d="M 8.5,-0.5 C 88.8333,-0.5 169.167,-0.5 249.5,-0.5C 249.5,14.5 249.5,29.5 249.5,44.5C 217.427,44.8255 185.427,44.4922 153.5,43.5C 105.5,43.5 57.5,43.5 9.5,43.5C 9.80192,35.0817 9.46859,26.7483 8.5,18.5C 8.5,12.1667 8.5,5.83333 8.5,-0.5 Z"/></g>
<g><path style="opacity:1" fill="#090909" d="M 19.5,6.5 C 21.1667,6.5 22.8333,6.5 24.5,6.5C 24.9172,15.9146 24.4172,25.2479 23,34.5C 19.5181,37.8825 15.3514,39.2159 10.5,38.5C 10.5,36.8333 10.5,35.1667 10.5,33.5C 14.4896,34.3845 17.3229,33.0511 19,29.5C 19.4997,21.8406 19.6664,14.1739 19.5,6.5 Z"/></g>
<g><path style="opacity:1" fill="#4f4f4f" d="M 120.5,5.5 C 120.5,16.1667 120.5,26.8333 120.5,37.5C 121.833,37.5 123.167,37.5 124.5,37.5C 123.081,38.4511 121.415,38.7845 119.5,38.5C 119.172,27.3206 119.505,16.3206 120.5,5.5 Z"/></g>
<g><path style="opacity:1" fill="#161616" d="M 120.5,5.5 C 122.167,5.5 123.833,5.5 125.5,5.5C 125.334,9.51383 125.501,13.5138 126,17.5C 134.396,13.3614 139.229,16.0281 140.5,25.5C 139.656,36.4138 134.323,40.4138 124.5,37.5C 123.167,37.5 121.833,37.5 120.5,37.5C 120.5,26.8333 120.5,16.1667 120.5,5.5 Z"/></g>
<g><path style="opacity:1" fill="#101010" d="M 172.5,37.5 C 170.585,37.7845 168.919,37.4511 167.5,36.5C 170.285,32.5421 173.285,28.7088 176.5,25C 167.129,26.2966 162.963,22.13 164,12.5C 167.18,6.76631 172.013,4.93298 178.5,7C 183.732,9.63257 185.565,13.7992 184,19.5C 180.903,26.0402 177.07,32.0402 172.5,37.5 Z"/></g>
<g><path style="opacity:1" fill="#1b1b1b" d="M 197.5,33.5 C 198.818,26.9888 198.818,20.3222 197.5,13.5C 196.893,13.6236 196.56,13.9569 196.5,14.5C 195.143,15.6854 193.643,16.6854 192,17.5C 190.231,16.6291 189.564,15.2957 190,13.5C 192.795,11.7068 195.295,9.54018 197.5,7C 199.473,6.50454 201.473,6.33788 203.5,6.5C 203.5,15.5 203.5,24.5 203.5,33.5C 205.167,33.5 206.833,33.5 208.5,33.5C 208.5,35.1667 208.5,36.8333 208.5,38.5C 202.833,38.5 197.167,38.5 191.5,38.5C 191.5,36.8333 191.5,35.1667 191.5,33.5C 193.5,33.5 195.5,33.5 197.5,33.5 Z"/></g>
<g><path style="opacity:1" fill="#eaeaea" d="M 170.5,10.5 C 177.163,9.33258 179.997,11.9992 179,18.5C 175.667,22.5 172.333,22.5 169,18.5C 168.282,15.5929 168.782,12.9262 170.5,10.5 Z"/></g>
<g><path style="opacity:1" fill="#131313" d="M 34.5,15.5 C 39.7654,14.5706 44.2654,15.9039 48,19.5C 48.4995,25.4908 48.6662,31.4908 48.5,37.5C 46.5082,37.6715 44.8415,37.0049 43.5,35.5C 35.2396,41.0559 31.073,39.0559 31,29.5C 34.3868,25.9609 38.5534,24.6276 43.5,25.5C 43.496,20.0115 40.8293,18.1781 35.5,20C 32.5215,22.0348 31.3548,21.2014 32,17.5C 32.9947,16.9341 33.828,16.2674 34.5,15.5 Z"/></g>
<g><path style="opacity:1" fill="#161616" d="M 78.5,15.5 C 82.2148,15.423 85.8815,15.7564 89.5,16.5C 89.5,17.8333 89.5,19.1667 89.5,20.5C 87.5122,20.1729 85.5122,19.8396 83.5,19.5C 81.6814,19.3422 80.3481,20.0089 79.5,21.5C 82.8901,23.9199 86.3901,26.2532 90,28.5C 91.1244,33.4214 89.2911,36.5881 84.5,38C 80.6115,39.1404 77.2781,38.307 74.5,35.5C 74.9186,34.3279 75.5853,33.3279 76.5,32.5C 78.9567,34.2249 81.6234,34.7249 84.5,34C 85.8333,32.6667 85.8333,31.3333 84.5,30C 74.2522,28.0369 72.2522,23.2036 78.5,15.5 Z"/></g>
<g><path style="opacity:1" fill="#171717" d="M 146.5,15.5 C 150.584,15.0431 154.417,15.7098 158,17.5C 158.612,19.2373 157.946,20.2373 156,20.5C 153.566,19.6777 151.066,19.3444 148.5,19.5C 148.238,20.9778 148.571,22.3112 149.5,23.5C 152.393,24.7404 155.227,26.0737 158,27.5C 159.549,34.4591 156.716,38.1258 149.5,38.5C 146.809,38.3206 144.475,37.3206 142.5,35.5C 142.865,34.0981 143.699,33.0981 145,32.5C 147.225,34.2783 149.725,34.7783 152.5,34C 153.833,32.6667 153.833,31.3333 152.5,30C 143.074,28.0264 141.074,23.1931 146.5,15.5 Z"/></g>
<g><path style="opacity:1" fill="#4a4a4a" d="M 196.5,14.5 C 196.56,13.9569 196.893,13.6236 197.5,13.5C 198.818,20.3222 198.818,26.9888 197.5,33.5C 197.823,26.9779 197.49,20.6446 196.5,14.5 Z"/></g>
<g><path style="opacity:1" fill="#151515" d="M 50.5,15.5 C 53.0444,15.1043 55.2111,15.771 57,17.5C 58.2742,21.9901 59.9409,26.3234 62,30.5C 63.6667,25.8333 65.3333,21.1667 67,16.5C 68.8138,15.2404 70.6471,15.2404 72.5,16.5C 69.6376,23.087 66.9709,29.7536 64.5,36.5C 62.604,37.4656 60.604,37.7989 58.5,37.5C 56.3969,29.9608 53.7303,22.6274 50.5,15.5 Z"/></g>
<g><path style="opacity:1" fill="#0e0e0e" d="M 94.5,15.5 C 96.1667,15.5 97.8333,15.5 99.5,15.5C 99.334,20.8437 99.5006,26.1771 100,31.5C 102.088,35.1786 104.755,35.5119 108,32.5C 108.499,26.8431 108.666,21.1764 108.5,15.5C 110.167,15.5 111.833,15.5 113.5,15.5C 113.5,22.8333 113.5,30.1667 113.5,37.5C 111.508,37.6715 109.842,37.0049 108.5,35.5C 104.295,39.4463 100.128,39.4463 96,35.5C 94.6226,28.9236 94.1226,22.2569 94.5,15.5 Z"/></g>
<g><path style="opacity:0.99" fill="#258ae5" d="M -0.5,18.5 C 2.5,18.5 5.5,18.5 8.5,18.5C 9.46859,26.7483 9.80192,35.0817 9.5,43.5C 57.5,43.5 105.5,43.5 153.5,43.5C 153.5,50.1667 153.5,56.8333 153.5,63.5C 102.167,63.5 50.8333,63.5 -0.5,63.5C -0.5,48.5 -0.5,33.5 -0.5,18.5 Z"/></g>
<g><path style="opacity:1" fill="#f5f5f5" d="M 127.5,19.5 C 132.578,18.7452 134.911,20.9118 134.5,26C 134.9,32.616 132.067,35.116 126,33.5C 124.966,28.5431 125.466,23.8764 127.5,19.5 Z"/></g>
<g><path style="opacity:1" fill="#e7e7e7" d="M 37.5,28.5 C 39.5,28.5 41.5,28.5 43.5,28.5C 43.2267,33.3316 40.5601,35.3316 35.5,34.5C 35.2587,32.1137 35.9254,30.1137 37.5,28.5 Z"/></g>
<g><path style="opacity:1" fill="#7d7d7d" d="M 167.5,36.5 C 168.919,37.4511 170.585,37.7845 172.5,37.5C 170.636,38.7928 168.636,38.7928 166.5,37.5C 166.624,36.8933 166.957,36.56 167.5,36.5 Z"/></g>
<g><path style="opacity:1" fill="#daebfa" d="M 11.5,45.5 C 17.2607,45.87 17.5941,46.87 12.5,48.5C 14.0971,49.7908 15.4304,51.2908 16.5,53C 15.1301,56.3788 12.7968,57.2121 9.5,55.5C 11.1667,54.8333 12.8333,54.1667 14.5,53.5C 10.8169,51.7941 9.81689,49.1274 11.5,45.5 Z"/></g>
<g><path style="opacity:1" fill="#dfedfb" d="M 35.5,45.5 C 37.604,45.2011 39.604,45.5344 41.5,46.5C 40.3112,47.4287 38.9778,47.762 37.5,47.5C 37.5,48.5 37.5,49.5 37.5,50.5C 41.1716,51.0447 40.8383,51.3781 36.5,51.5C 36.5,52.8333 36.5,54.1667 36.5,55.5C 38.1992,55.6602 39.8659,55.4935 41.5,55C 47.2307,42.043 49.8974,42.543 49.5,56.5C 48.5318,55.5109 47.3651,54.8443 46,54.5C 42.3258,56.0944 38.4925,56.761 34.5,56.5C 34.423,52.7852 34.7564,49.1185 35.5,45.5 Z"/></g>
<g><path style="opacity:1" fill="#d7e9fa" d="M 26.5,45.5 C 28.7925,45.2436 30.9592,45.5769 33,46.5C 32.1495,49.8324 31.6495,53.1657 31.5,56.5C 30.5,55.1667 29.5,53.8333 28.5,52.5C 27.8333,53.8333 27.1667,55.1667 26.5,56.5C 25.5397,52.8614 25.5397,49.1947 26.5,45.5 Z"/></g>
<g><path style="opacity:1" fill="#3e94e7" d="M 28.5,47.5 C 29.5,47.5 30.5,47.5 31.5,47.5C 31.5,48.5 31.5,49.5 31.5,50.5C 30.5,50.5 29.5,50.5 28.5,50.5C 28.5,49.5 28.5,48.5 28.5,47.5 Z"/></g>
<g><path style="opacity:1" fill="#d8e9fa" d="M 52.5,45.5 C 53.675,45.281 54.675,45.6143 55.5,46.5C 56.0521,48.3334 56.8855,50.0001 58,51.5C 59.3076,49.3586 60.8076,47.3586 62.5,45.5C 63.8333,49.1667 63.8333,52.8333 62.5,56.5C 61.6922,54.5767 61.1922,52.5767 61,50.5C 58.6941,55.6894 56.6941,55.6894 55,50.5C 54.6401,52.6079 53.9734,54.6079 53,56.5C 52.5014,52.8484 52.3347,49.1817 52.5,45.5 Z"/></g>
<g><path style="opacity:1" fill="#daebfa" d="M 70.5,45.5 C 71.8333,45.5 73.1667,45.5 74.5,45.5C 74.8808,47.9418 74.2141,48.6085 72.5,47.5C 71.3338,49.3649 71.6671,51.0316 73.5,52.5C 74.086,52.2907 74.586,51.9574 75,51.5C 75.2734,53.1012 75.7734,54.6012 76.5,56C 73.8333,56.6667 71.1667,56.6667 68.5,56C 67.9415,55.2753 67.6082,54.4419 67.5,53.5C 68.863,50.9281 69.863,48.2614 70.5,45.5 Z"/></g>
<g><path style="opacity:1" fill="#3f97e8" d="M 46.5,48.5 C 47.782,49.7082 47.782,51.0416 46.5,52.5C 45.7084,51.3002 45.7084,49.9669 46.5,48.5 Z"/></g>
<g><path style="opacity:1" fill="#dfedfb" d="M 81.5,45.5 C 89.5584,45.1454 91.5584,48.4787 87.5,55.5C 85.2534,56.3742 82.9201,56.7076 80.5,56.5C 80.3227,52.7657 80.6561,49.0991 81.5,45.5 Z"/></g>
<g><path style="opacity:1" fill="#298be5" d="M 83.5,47.5 C 84.8333,47.5 86.1667,47.5 87.5,47.5C 87.6621,49.5273 87.4955,51.5273 87,53.5C 86.6174,54.056 86.1174,54.3893 85.5,54.5C 83.6565,52.7211 82.9898,50.3878 83.5,47.5 Z"/></g>
<g><path style="opacity:1" fill="#88bff1" d="M 93.5,50.5 C 93.5,51.8333 93.5,53.1667 93.5,54.5C 94.791,54.2627 95.791,54.596 96.5,55.5C 95.1667,55.5 93.8333,55.5 92.5,55.5C 92.2155,53.5853 92.5489,51.9187 93.5,50.5 Z"/></g>
<g><path style="opacity:1" fill="#d9eafa" d="M 17.5,45.5 C 20.2469,45.1866 22.9135,45.52 25.5,46.5C 24.3112,47.4287 22.9778,47.762 21.5,47.5C 21.8174,50.5719 21.4841,53.5719 20.5,56.5C 19.8367,52.6657 18.8367,48.9991 17.5,45.5 Z"/></g>
<g><path style="opacity:1" fill="#75b0ee" d="M 69.5,52.5 C 73.31,53.7542 73.31,54.7542 69.5,55.5C 69.5,54.5 69.5,53.5 69.5,52.5 Z"/></g>
<g><path style="opacity:1" fill="#88bef1" d="M 83.5,47.5 C 82.9898,50.3878 83.6565,52.7211 85.5,54.5C 84.791,55.404 83.791,55.7373 82.5,55.5C 82.1936,52.6146 82.5269,49.9479 83.5,47.5 Z"/></g>
<g><path style="opacity:1" fill="#e7f2fc" d="M 93.5,50.5 C 92.5489,51.9187 92.2155,53.5853 92.5,55.5C 93.8333,55.5 95.1667,55.5 96.5,55.5C 94.7354,56.4614 92.7354,56.7947 90.5,56.5C 90.7947,52.7721 91.4614,49.1054 92.5,45.5C 93.4519,47.0453 93.7852,48.712 93.5,50.5 Z"/></g>
</svg>
