<?xml version="1.0" encoding="UTF-8"?>
<!DOCTYPE svg PUBLIC "-//W3C//DTD SVG 1.1//EN" "http://www.w3.org/Graphics/SVG/1.1/DTD/svg11.dtd">
<svg xmlns="http://www.w3.org/2000/svg" version="1.1" width="120px" height="120px" style="shape-rendering:geometricPrecision; text-rendering:geometricPrecision; image-rendering:optimizeQuality; fill-rule:evenodd; clip-rule:evenodd" xmlns:xlink="http://www.w3.org/1999/xlink">
<g><path style="opacity:1" fill="#303031" d="M -0.5,-0.5 C 39.5,-0.5 79.5,-0.5 119.5,-0.5C 119.5,39.5 119.5,79.5 119.5,119.5C 82.8333,119.5 46.1667,119.5 9.5,119.5C 14.192,112.475 20.192,106.809 27.5,102.5C 27,101.5 26.5,100.5 26,99.5C 25.6667,81.5 25.3333,63.5 25,45.5C 20.3227,44.3206 15.8227,44.9873 11.5,47.5C 11.8333,48.5 12.5,49.1667 13.5,49.5C 14.6663,66.1567 14.8329,82.8233 14,99.5C 11.9131,105.507 9.41314,111.341 6.5,117C 6.74325,117.902 7.07658,118.735 7.5,119.5C 4.83333,119.5 2.16667,119.5 -0.5,119.5C -0.5,79.5 -0.5,39.5 -0.5,-0.5 Z"/></g>
<g><path style="opacity:1" fill="#1f83db" d="M 18.5,18.5 C 22.1311,19.6076 25.1311,21.7742 27.5,25C 24.2694,27.7273 21.6028,30.894 19.5,34.5C 16.6314,32.4659 14.2981,29.9659 12.5,27C 13.9273,23.7431 15.9273,20.9097 18.5,18.5 Z"/></g>
<g><path style="opacity:1" fill="#1f85e0" d="M 69.5,25.5 C 69.0843,30.4932 68.7509,35.4932 68.5,40.5C 67.2316,55.3775 67.5649,70.3775 69.5,85.5C 62.4477,85.5719 56.281,87.9052 51,92.5C 46.6025,89.5519 41.7692,87.7185 36.5,87C 35.5494,86.2825 35.3828,85.4491 36,84.5C 40.8861,77.6196 47.0528,75.953 54.5,79.5C 54.56,80.0431 54.8933,80.3764 55.5,80.5C 56.6639,74.1928 56.8306,67.8595 56,61.5C 55.2828,62.0442 54.7828,62.7109 54.5,63.5C 51.8682,65.1134 49.2016,66.78 46.5,68.5C 43.7291,65.4525 40.3958,63.4525 36.5,62.5C 37.456,50.4771 37.7893,38.4771 37.5,26.5C 43.8038,24.9542 49.8038,22.6208 55.5,19.5C 59.476,23.1557 64.1427,25.1557 69.5,25.5 Z"/></g>
<g><path style="opacity:1" fill="#1e85e0" d="M 89.5,86.5 C 89.8329,68.8208 89.4995,51.1541 88.5,33.5C 87.8933,33.6236 87.56,33.9569 87.5,34.5C 85.8339,36.8284 83.5005,37.8284 80.5,37.5C 78.3659,37.4847 76.3659,36.9847 74.5,36C 80.7182,32.0677 84.8849,26.5677 87,19.5C 90.3515,23.2334 94.5182,25.5667 99.5,26.5C 100.333,43.8237 100.833,61.1571 101,78.5C 102.325,80.9933 104.491,82.16 107.5,82C 104.5,85 101.5,88 98.5,91C 97.1667,91.6667 95.8333,91.6667 94.5,91C 92.9368,89.264 91.2701,87.764 89.5,86.5 Z"/></g>
<g><path style="opacity:1" fill="#303132" d="M 50.5,56.5 C 48.5349,49.2395 47.8682,41.5729 48.5,33.5C 49.8566,32.3146 51.3566,31.3146 53,30.5C 54.2613,30.7591 55.2613,31.4258 56,32.5C 56.8309,39.1915 56.6642,45.8582 55.5,52.5C 53.79,53.8872 52.1233,55.2206 50.5,56.5 Z"/></g>
<g><path style="opacity:1" fill="#2e475f" d="M 69.5,25.5 C 70.5793,30.5517 70.2459,35.5517 68.5,40.5C 68.7509,35.4932 69.0843,30.4932 69.5,25.5 Z"/></g>
<g><path style="opacity:1" fill="#2a4f6f" d="M 48.5,33.5 C 47.8682,41.5729 48.5349,49.2395 50.5,56.5C 49.791,57.404 48.791,57.7373 47.5,57.5C 47.1743,49.3159 47.5076,41.3159 48.5,33.5 Z"/></g>
<g><path style="opacity:1" fill="#28547a" d="M 87.5,34.5 C 87.56,33.9569 87.8933,33.6236 88.5,33.5C 89.4995,51.1541 89.8329,68.8208 89.5,86.5C 88.8333,69.1667 88.1667,51.8333 87.5,34.5 Z"/></g>
<g><path style="opacity:1" fill="#1f84de" d="M 9.5,119.5 C 8.83333,119.5 8.16667,119.5 7.5,119.5C 7.07658,118.735 6.74325,117.902 6.5,117C 9.41314,111.341 11.9131,105.507 14,99.5C 14.8329,82.8233 14.6663,66.1567 13.5,49.5C 12.5,49.1667 11.8333,48.5 11.5,47.5C 15.8227,44.9873 20.3227,44.3206 25,45.5C 25.3333,63.5 25.6667,81.5 26,99.5C 26.5,100.5 27,101.5 27.5,102.5C 20.192,106.809 14.192,112.475 9.5,119.5 Z"/></g>
<g><path style="opacity:1" fill="#2d4152" d="M 54.5,79.5 C 55.8333,74.1667 55.8333,68.8333 54.5,63.5C 54.7828,62.7109 55.2828,62.0442 56,61.5C 56.8306,67.8595 56.6639,74.1928 55.5,80.5C 54.8933,80.3764 54.56,80.0431 54.5,79.5 Z"/></g>
</svg>
